<?xml version="1.0" encoding="UTF-8" standalone="no"?>
<!-- Created with Inkscape (http://www.inkscape.org/) -->

<svg
   width="210mm"
   height="297mm"
   viewBox="0 0 210 297"
   version="1.1"
   id="svg5"
   inkscape:version="1.1.2 (b8e25be833, 2022-02-05)"
   sodipodi:docname="logo PETAL.svg"
   inkscape:export-filename="logo.png"
   inkscape:export-xdpi="968.23944"
   inkscape:export-ydpi="968.23944"
   xmlns:inkscape="http://www.inkscape.org/namespaces/inkscape"
   xmlns:sodipodi="http://sodipodi.sourceforge.net/DTD/sodipodi-0.dtd"
   xmlns:xlink="http://www.w3.org/1999/xlink"
   xmlns="http://www.w3.org/2000/svg"
   xmlns:svg="http://www.w3.org/2000/svg">
  <sodipodi:namedview
     id="namedview7"
     pagecolor="#505050"
     bordercolor="#eeeeee"
     borderopacity="1"
     inkscape:pageshadow="0"
     inkscape:pageopacity="0"
     inkscape:pagecheckerboard="0"
     inkscape:document-units="mm"
     showgrid="false"
     inkscape:zoom="0.87087519"
     inkscape:cx="784.84266"
     inkscape:cy="637.28994"
     inkscape:window-width="1920"
     inkscape:window-height="1002"
     inkscape:window-x="-9"
     inkscape:window-y="-9"
     inkscape:window-maximized="1"
     inkscape:current-layer="layer1" />
  <defs
     id="defs2">
    <rect
       x="-58.348795"
       y="822.44016"
       width="953.0303"
       height="241.73072"
       id="rect12484" />
    <linearGradient
       inkscape:collect="always"
       id="linearGradient1400">
      <stop
         style="stop-color:#ff00c9;stop-opacity:0.89711934"
         offset="0"
         id="stop1396" />
      <stop
         style="stop-color:#fa0000;stop-opacity:0.89803922"
         offset="1"
         id="stop1398" />
    </linearGradient>
    <linearGradient
       inkscape:collect="always"
       xlink:href="#linearGradient1400"
       id="linearGradient1226"
       x1="623.83783"
       y1="108.10074"
       x2="185.27696"
       y2="52.429424"
       gradientUnits="userSpaceOnUse"
       gradientTransform="translate(-328.26091,57.326274)" />
    <radialGradient
       inkscape:collect="always"
       xlink:href="#linearGradient1400"
       id="radialGradient46179-2"
       cx="259.36914"
       cy="967.88037"
       fx="259.36914"
       fy="967.88037"
       r="314.4375"
       gradientTransform="matrix(2.4756887,0,0,2.4876311,-382.74811,-1439.8489)"
       gradientUnits="userSpaceOnUse" />
    <rect
       x="-58.348797"
       y="822.44019"
       width="953.03027"
       height="241.73071"
       id="rect12484-0" />
    <radialGradient
       inkscape:collect="always"
       xlink:href="#linearGradient1400"
       id="radialGradient843"
       cx="259.36914"
       cy="967.88037"
       fx="259.36914"
       fy="967.88037"
       r="314.4375"
       gradientTransform="matrix(2.4756887,0,0,2.4876311,-382.74811,-1439.8489)"
       gradientUnits="userSpaceOnUse" />
    <radialGradient
       inkscape:collect="always"
       xlink:href="#linearGradient1400"
       id="radialGradient851"
       cx="259.36914"
       cy="967.88037"
       fx="259.36914"
       fy="967.88037"
       r="314.4375"
       gradientTransform="matrix(2.4756887,0,0,2.4876311,-382.74811,-1439.8489)"
       gradientUnits="userSpaceOnUse" />
  </defs>
  <g
     inkscape:label="Texte"
     inkscape:groupmode="layer"
     id="layer1"
     style="display:inline">
    <g
       aria-label="PETAL"
       transform="matrix(1.4206207,0,0,1.4206207,99.845523,-970.00209)"
       id="text12482-2"
       style="font-size:40px;line-height:1.25;font-family:Alice;-inkscape-font-specification:'Alice, Normal';letter-spacing:1.86245px;white-space:pre;shape-inside:url(#rect12484-0);display:inline;fill:url(#radialGradient46179-2)">
      <path
         d="m -55.949609,859.37048 q -0.36,0 -0.56,-0.28 -0.16,-0.28 -0.16,-0.6 0.04,-0.68 0.32,-0.76 0.32,-0.08 0.72,-0.08 1.28,0 1.8,-0.44 0.52,-0.48 0.64,-1.16 0.16,-0.72 0.16,-1.48 v -15.88 q 0,-0.76 -0.16,-1.44 -0.12,-0.72 -0.64,-1.16 -0.52,-0.48 -1.8,-0.48 -0.4,0 -0.72,-0.08 -0.28,-0.08 -0.32,-0.76 0,-0.32 0.16,-0.6 0.2,-0.28 0.56,-0.28 1.28,0.04 2.44,0.08 1.16,0.04 2.36,0.04 h 6 q 0.76,0 1.96,0.12 1.24,0.12 2.6,0.48 1.4,0.36 2.64,1.16 1.24,0.8 2,2.12 0.8,1.32 0.8,3.32 0,1.88 -0.88,3.4 -0.84,1.52 -2.28,2.6 -1.4,1.08 -3.2,1.68 -1.76,0.56 -3.6,0.56 -0.88,0 -1.92,-0.12 -1.04,-0.12 -2.08,-0.52 v 5.76 q 0.04,0.76 0.16,1.48 0.12,0.68 0.64,1.16 0.56,0.44 1.8,0.44 0.44,0 0.72,0.08 0.28,0.08 0.32,0.76 0,0.32 -0.2,0.6 -0.16,0.28 -0.52,0.28 -2.56,-0.12 -5,-0.12 -1.2,0 -2.36,0 -1.12,0.04 -2.4,0.12 z m 9.68,-11.72 q 0.92,0 2.04,-0.28 1.16,-0.32 2.2,-1 1.08,-0.72 1.76,-1.92 0.68,-1.24 0.68,-3.12 0,-2.04 -0.8,-3.2 -0.8,-1.2 -2,-1.76 -1.16,-0.56 -2.32,-0.72 -1.16,-0.16 -1.88,-0.16 -0.96,0 -1.52,0.2 -0.56,0.2 -0.8,0.88 -0.2,0.64 -0.2,2 v 8.64 q 0.4,0.16 1.16,0.32 0.76,0.12 1.68,0.12 z"
         id="path19" />
      <path
         d="m -30.207155,859.37048 q -0.36,0 -0.52,-0.28 -0.16,-0.28 -0.16,-0.6 0.04,-0.68 0.32,-0.76 0.28,-0.08 0.68,-0.08 1.28,0 1.8,-0.44 0.52,-0.48 0.64,-1.16 0.16,-0.72 0.16,-1.48 v -15.88 q 0,-0.76 -0.16,-1.44 -0.12,-0.72 -0.64,-1.16 -0.52,-0.48 -1.8,-0.48 -0.4,0 -0.68,-0.08 -0.28,-0.08 -0.32,-0.76 0,-0.32 0.16,-0.6 0.16,-0.28 0.52,-0.28 1.32,0.04 2.44,0.08 1.12,0.04 2.32,0.04 h 12.56 q 0.44,0 0.72,0.2 0.32,0.2 0.32,0.76 l 0.12,5.6 q 0,0.4 -0.4,0.6 -0.36,0.2 -0.68,0.2 -0.44,0 -0.8,-0.16 -0.36,-0.2 -0.44,-0.56 -0.28,-1.8 -0.68,-2.88 -0.36,-1.12 -1.12,-1.6 -0.72,-0.52 -2.12,-0.56 h -5.36 v 10.16 h 7.24 q 0.32,0.04 0.44,0.32 0.16,0.28 0.16,0.6 0,0.28 -0.16,0.56 -0.12,0.24 -0.44,0.24 h -7.24 v 7.56 q 0.04,0.52 0.16,1.16 0.12,0.6 0.68,1.04 0.6,0.44 1.96,0.4 h 3.68 q 1.4,-0.04 2.12,-0.44 0.76,-0.44 1.2,-1.44 0.44,-1 0.96,-2.76 0.16,-0.4 0.52,-0.52 0.4,-0.12 0.84,-0.04 0.32,0.04 0.64,0.28 0.36,0.24 0.32,0.64 l -0.8,5.04 q -0.12,0.56 -0.4,0.72 -0.24,0.12 -0.76,0.12 h -13.2 q -1.2,0 -2.36,0 -1.12,0.04 -2.44,0.12 z"
         id="path21" />
      <path
         d="m 0.17528931,859.37048 q -0.4,0 -0.56,-0.28 -0.16,-0.28 -0.16,-0.6 0.04,-0.68 0.32,-0.76 0.28,-0.08 0.68,-0.08 1.27999999,0 1.79999999,-0.44 0.52,-0.48 0.64,-1.16 0.16,-0.72 0.16,-1.48 v -19.08 H 0.29528931 q -1.36000001,0.04 -2.12000001,0.6 -0.76,0.52 -1.12,1.68 -0.36,1.12 -0.64,2.92 -0.04,0.36 -0.52,0.56 -0.44,0.16 -0.88,0.16 -0.28,0 -0.64,-0.2 -0.32,-0.2 -0.32,-0.6 l 0.12,-5.64 q 0,-0.56 0.32,-0.76 0.32,-0.2 0.76,-0.2 H 14.815289 q 0.44,0 0.72,0.2 0.32,0.2 0.32,0.76 l 0.16,5.64 q 0,0.4 -0.36,0.6 -0.32,0.2 -0.64,0.2 -0.4,0 -0.84,-0.16 -0.44,-0.2 -0.52,-0.56 -0.28,-1.8 -0.68,-2.92 -0.36,-1.16 -1.12,-1.68 -0.72,-0.56 -2.1199997,-0.6 h -2.72 v 19.08 q 0.04,0.76 0.16,1.48 0.12,0.68 0.64,1.16 0.56,0.44 1.8,0.44 0.3999997,0 0.6799997,0.08 0.28,0.08 0.32,0.76 0,0.32 -0.16,0.6 -0.16,0.28 -0.5599997,0.28 -1.28,-0.08 -2.44,-0.12 -1.12,0 -2.28,0 -2.4,0 -4.99999999,0.12 z"
         id="path23" />
      <path
         d="m 17.197741,859.37048 q -0.4,0 -0.56,-0.28 -0.16,-0.28 -0.16,-0.6 0.04,-0.68 0.32,-0.76 0.28,-0.08 0.68,-0.08 1.08,0 1.64,-0.44 0.56,-0.44 0.88,-1.16 0.36,-0.72 0.68,-1.48 l 7,-16.56 q 0.4,-0.96 0.16,-1.44 -0.24,-0.52 -0.8,-0.72 -0.56,-0.24 -1.24,-0.36 -0.6,-0.12 -0.8,-0.2 -0.2,-0.12 -0.2,-0.72 0,-0.68 0.48,-0.72 0.48,-0.08 1.12,-0.08 1.64,0 2.8,0.32 1.16,0.32 2,1.24 0.84,0.88 1.56,2.68 l 6.72,16.56 q 0.28,0.68 0.6,1.4 0.32,0.72 0.84,1.2 0.56,0.44 1.4,0.48 0.44,0 0.68,0.08 0.28,0.08 0.32,0.76 0,0.32 -0.2,0.6 -0.16,0.28 -0.52,0.28 -1.28,-0.08 -2.24,-0.12 -0.96,0 -2.16,0 -2.36,0 -4.96,0.12 -0.4,0 -0.56,-0.28 -0.16,-0.28 -0.16,-0.6 0.04,-0.68 0.32,-0.76 0.28,-0.08 0.68,-0.08 1.96,0 2.12,-0.72 0.2,-0.72 -0.36,-2.36 l -1.36,-3.32 h -9.88 q -0.6,1.52 -0.88,2.2 -0.24,0.68 -0.32,0.88 -0.04,0.2 -0.08,0.24 -0.44,1.36 -0.48,2.04 0,0.64 0.64,0.84 0.68,0.2 2.24,0.2 0.44,0 0.68,0.08 0.28,0.08 0.32,0.76 0,0.32 -0.2,0.6 -0.16,0.28 -0.52,0.28 -1.28,-0.08 -2.24,-0.12 -0.92,0 -2.12,0 -0.8,0 -1.36,0 -0.52,0.04 -1.08,0.04 -0.56,0.04 -1.44,0.08 z m 7.6,-9.84 h 8.4 l -4.04,-10.28 h -0.12 z"
         id="path25" />
      <path
         d="m 45.740149,859.37048 q -0.36,0 -0.52,-0.28 -0.16,-0.28 -0.16,-0.6 0.04,-0.68 0.32,-0.76 0.28,-0.08 0.68,-0.08 1.28,0 1.8,-0.44 0.52,-0.48 0.64,-1.16 0.16,-0.72 0.16,-1.48 v -15.88 q 0,-0.76 -0.16,-1.44 -0.12,-0.72 -0.64,-1.16 -0.52,-0.48 -1.8,-0.48 -0.4,0 -0.68,-0.08 -0.28,-0.08 -0.32,-0.76 0,-0.32 0.16,-0.6 0.16,-0.28 0.52,-0.28 1.32,0.04 2.44,0.08 1.12,0.04 2.32,0.04 2.44,0 5,-0.12 0.4,0 0.56,0.28 0.16,0.28 0.16,0.6 -0.04,0.68 -0.32,0.76 -0.28,0.08 -0.68,0.08 -1.24,0 -1.8,0.48 -0.52,0.44 -0.64,1.16 -0.12,0.68 -0.16,1.44 v 16.48 q 0.04,0.52 0.16,1.12 0.12,0.6 0.68,1 0.6,0.4 1.96,0.36 h 3.6 q 1.4,-0.04 2.12,-0.44 0.76,-0.44 1.2,-1.44 0.44,-1 0.96,-2.76 0.16,-0.4 0.52,-0.52 0.4,-0.12 0.84,-0.04 0.32,0.04 0.64,0.28 0.36,0.24 0.32,0.64 l -0.8,5.04 q -0.12,0.56 -0.4,0.72 -0.24,0.12 -0.76,0.12 h -13.12 q -1.2,0 -2.36,0 -1.12,0.04 -2.44,0.12 z"
         id="path27" />
    </g>
  </g>
  <g
     inkscape:groupmode="layer"
     id="layer3"
     inkscape:label="Logo"
     style="display:inline">
    <path
       style="fill:url(#linearGradient1226);fill-opacity:1;stroke-width:0.264583"
       d="m 208.02938,155.34972 c -0.12531,12.27503 -11.53376,17.82848 -21.46985,19.26463 -16.81848,2.43092 -33.80693,3.66099 -50.25255,8.47463 -14.05273,4.11324 -27.4421,10.12445 -41.385356,14.35216 -17.099736,5.18478 -36.593876,10.70939 -53.704493,3.54515 C 29.030693,195.88381 21.759553,183.9584 15.653404,172.50004 9.0119478,160.03717 3.3048273,146.76927 3.4058786,132.55645 3.5127883,117.51965 10.127423,103.07727 10.180464,88.0265 10.21655,77.786732 15.596396,69.98524 23.940826,64.808045 c 9.989025,-6.197562 21.289311,-9.445389 30.863882,-16.154541 9.089941,-6.369559 20.986427,-5.553272 31.297746,-3.568188 23.362006,4.497538 44.100396,17.660683 61.079596,33.983417 17.75881,17.072201 35.85743,33.983907 51.4209,53.073777 5.21513,6.39678 9.52165,13.87955 9.42643,23.20721 z"
       id="path211"
       sodipodi:nodetypes="ssssssssssssss" />
  </g>
</svg>
