<?xml version="1.0" encoding="UTF-8"?>
<svg width="230.29mm" height="230.29mm" version="1.1" viewBox="0 0 230.29 230.29" xmlns="http://www.w3.org/2000/svg" xmlns:xlink="http://www.w3.org/1999/xlink">
	<defs>
		<linearGradient id="linearGradient1226" x1="623.84" x2="185.28" y1="108.1" y2="52.429" gradientTransform="translate(-328.26 57.326)" gradientUnits="userSpaceOnUse">
			<stop stop-color="#ff00c9" stop-opacity=".89712" offset="0"/>
			<stop stop-color="#fa0000" stop-opacity=".89804" offset="1"/>
		</linearGradient>
	</defs>
	<g transform="translate(9.4274 -8.8815)">
		<path d="m208.03 155.35c-0.12531 12.275-11.534 17.828-21.47 19.265-16.818 2.4309-33.807 3.661-50.253 8.4746-14.053 4.1132-27.442 10.124-41.385 14.352-17.1 5.1848-36.594 10.709-53.704 3.5452-12.186-5.1025-19.458-17.028-25.564-28.486-6.6415-12.463-12.349-25.731-12.248-39.944 0.10691-15.037 6.7215-29.479 6.7746-44.53 0.036086-10.24 5.4159-18.041 13.76-23.218 9.989-6.1976 21.289-9.4454 30.864-16.155 9.0899-6.3696 20.986-5.5533 31.298-3.5682 23.362 4.4975 44.1 17.661 61.08 33.983 17.759 17.072 35.857 33.984 51.421 53.074 5.2151 6.3968 9.5216 13.88 9.4264 23.207z" fill="url(#linearGradient1226)" stroke-width=".26458"/>
	</g>
</svg>
