<?xml version="1.0" encoding="UTF-8"?>
<svg width="173.73mm" height="36.368mm" version="1.1" viewBox="0 0 173.73 36.368" xmlns="http://www.w3.org/2000/svg" xmlns:xlink="http://www.w3.org/1999/xlink">
	<defs>
		<linearGradient id="linearGradient1400">
			<stop stop-color="#ff00c9" stop-opacity=".89712" offset="0"/>
			<stop stop-color="#fa0000" stop-opacity=".89804" offset="1"/>
		</linearGradient>
		<radialGradient id="radialGradient46179-2" cx="259.37" cy="967.88" r="314.44" gradientTransform="matrix(2.4757 0 0 2.4876 -382.75 -1439.8)" gradientUnits="userSpaceOnUse" xlink:href="#linearGradient1400"/>
	</defs>
	<g transform="translate(-19.34 -214.47)">
		<g transform="matrix(1.4206 0 0 1.4206 99.846 -970)" fill="url(#radialGradient46179-2)" style="shape-inside:url(#rect12484-0);white-space:pre" aria-label="PETAL">
			<path d="m-55.95 859.37q-0.36 0-0.56-0.28-0.16-0.28-0.16-0.6 0.04-0.68 0.32-0.76 0.32-0.08 0.72-0.08 1.28 0 1.8-0.44 0.52-0.48 0.64-1.16 0.16-0.72 0.16-1.48v-15.88q0-0.76-0.16-1.44-0.12-0.72-0.64-1.16-0.52-0.48-1.8-0.48-0.4 0-0.72-0.08-0.28-0.08-0.32-0.76 0-0.32 0.16-0.6 0.2-0.28 0.56-0.28 1.28 0.04 2.44 0.08t2.36 0.04h6q0.76 0 1.96 0.12 1.24 0.12 2.6 0.48 1.4 0.36 2.64 1.16t2 2.12q0.8 1.32 0.8 3.32 0 1.88-0.88 3.4-0.84 1.52-2.28 2.6-1.4 1.08-3.2 1.68-1.76 0.56-3.6 0.56-0.88 0-1.92-0.12t-2.08-0.52v5.76q0.04 0.76 0.16 1.48 0.12 0.68 0.64 1.16 0.56 0.44 1.8 0.44 0.44 0 0.72 0.08t0.32 0.76q0 0.32-0.2 0.6-0.16 0.28-0.52 0.28-2.56-0.12-5-0.12-1.2 0-2.36 0-1.12 0.04-2.4 0.12zm9.68-11.72q0.92 0 2.04-0.28 1.16-0.32 2.2-1 1.08-0.72 1.76-1.92 0.68-1.24 0.68-3.12 0-2.04-0.8-3.2-0.8-1.2-2-1.76-1.16-0.56-2.32-0.72t-1.88-0.16q-0.96 0-1.52 0.2t-0.8 0.88q-0.2 0.64-0.2 2v8.64q0.4 0.16 1.16 0.32 0.76 0.12 1.68 0.12z"/>
			<path d="m-30.207 859.37q-0.36 0-0.52-0.28t-0.16-0.6q0.04-0.68 0.32-0.76t0.68-0.08q1.28 0 1.8-0.44 0.52-0.48 0.64-1.16 0.16-0.72 0.16-1.48v-15.88q0-0.76-0.16-1.44-0.12-0.72-0.64-1.16-0.52-0.48-1.8-0.48-0.4 0-0.68-0.08t-0.32-0.76q0-0.32 0.16-0.6t0.52-0.28q1.32 0.04 2.44 0.08t2.32 0.04h12.56q0.44 0 0.72 0.2 0.32 0.2 0.32 0.76l0.12 5.6q0 0.4-0.4 0.6-0.36 0.2-0.68 0.2-0.44 0-0.8-0.16-0.36-0.2-0.44-0.56-0.28-1.8-0.68-2.88-0.36-1.12-1.12-1.6-0.72-0.52-2.12-0.56h-5.36v10.16h7.24q0.32 0.04 0.44 0.32 0.16 0.28 0.16 0.6 0 0.28-0.16 0.56-0.12 0.24-0.44 0.24h-7.24v7.56q0.04 0.52 0.16 1.16 0.12 0.6 0.68 1.04 0.6 0.44 1.96 0.4h3.68q1.4-0.04 2.12-0.44 0.76-0.44 1.2-1.44t0.96-2.76q0.16-0.4 0.52-0.52 0.4-0.12 0.84-0.04 0.32 0.04 0.64 0.28 0.36 0.24 0.32 0.64l-0.8 5.04q-0.12 0.56-0.4 0.72-0.24 0.12-0.76 0.12h-13.2q-1.2 0-2.36 0-1.12 0.04-2.44 0.12z"/>
			<path d="m0.17529 859.37q-0.4 0-0.56-0.28t-0.16-0.6q0.04-0.68 0.32-0.76t0.68-0.08q1.28 0 1.8-0.44 0.52-0.48 0.64-1.16 0.16-0.72 0.16-1.48v-19.08h-2.76q-1.36 0.04-2.12 0.6-0.76 0.52-1.12 1.68-0.36 1.12-0.64 2.92-0.04 0.36-0.52 0.56-0.44 0.16-0.88 0.16-0.28 0-0.64-0.2-0.32-0.2-0.32-0.6l0.12-5.64q0-0.56 0.32-0.76t0.76-0.2h19.56q0.44 0 0.72 0.2 0.32 0.2 0.32 0.76l0.16 5.64q0 0.4-0.36 0.6-0.32 0.2-0.64 0.2-0.4 0-0.84-0.16-0.44-0.2-0.52-0.56-0.28-1.8-0.68-2.92-0.36-1.16-1.12-1.68-0.72-0.56-2.12-0.6h-2.72v19.08q0.04 0.76 0.16 1.48 0.12 0.68 0.64 1.16 0.56 0.44 1.8 0.44 0.4 0 0.68 0.08t0.32 0.76q0 0.32-0.16 0.6t-0.56 0.28q-1.28-0.08-2.44-0.12-1.12 0-2.28 0-2.4 0-5 0.12z"/>
			<path d="m17.198 859.37q-0.4 0-0.56-0.28t-0.16-0.6q0.04-0.68 0.32-0.76t0.68-0.08q1.08 0 1.64-0.44t0.88-1.16q0.36-0.72 0.68-1.48l7-16.56q0.4-0.96 0.16-1.44-0.24-0.52-0.8-0.72-0.56-0.24-1.24-0.36-0.6-0.12-0.8-0.2-0.2-0.12-0.2-0.72 0-0.68 0.48-0.72 0.48-0.08 1.12-0.08 1.64 0 2.8 0.32t2 1.24q0.84 0.88 1.56 2.68l6.72 16.56q0.28 0.68 0.6 1.4t0.84 1.2q0.56 0.44 1.4 0.48 0.44 0 0.68 0.08 0.28 0.08 0.32 0.76 0 0.32-0.2 0.6-0.16 0.28-0.52 0.28-1.28-0.08-2.24-0.12-0.96 0-2.16 0-2.36 0-4.96 0.12-0.4 0-0.56-0.28t-0.16-0.6q0.04-0.68 0.32-0.76t0.68-0.08q1.96 0 2.12-0.72 0.2-0.72-0.36-2.36l-1.36-3.32h-9.88q-0.6 1.52-0.88 2.2-0.24 0.68-0.32 0.88-0.04 0.2-0.08 0.24-0.44 1.36-0.48 2.04 0 0.64 0.64 0.84 0.68 0.2 2.24 0.2 0.44 0 0.68 0.08 0.28 0.08 0.32 0.76 0 0.32-0.2 0.6-0.16 0.28-0.52 0.28-1.28-0.08-2.24-0.12-0.92 0-2.12 0-0.8 0-1.36 0-0.52 0.04-1.08 0.04-0.56 0.04-1.44 0.08zm7.6-9.84h8.4l-4.04-10.28h-0.12z"/>
			<path d="m45.74 859.37q-0.36 0-0.52-0.28t-0.16-0.6q0.04-0.68 0.32-0.76t0.68-0.08q1.28 0 1.8-0.44 0.52-0.48 0.64-1.16 0.16-0.72 0.16-1.48v-15.88q0-0.76-0.16-1.44-0.12-0.72-0.64-1.16-0.52-0.48-1.8-0.48-0.4 0-0.68-0.08t-0.32-0.76q0-0.32 0.16-0.6t0.52-0.28q1.32 0.04 2.44 0.08t2.32 0.04q2.44 0 5-0.12 0.4 0 0.56 0.28t0.16 0.6q-0.04 0.68-0.32 0.76t-0.68 0.08q-1.24 0-1.8 0.48-0.52 0.44-0.64 1.16-0.12 0.68-0.16 1.44v16.48q0.04 0.52 0.16 1.12t0.68 1q0.6 0.4 1.96 0.36h3.6q1.4-0.04 2.12-0.44 0.76-0.44 1.2-1.44t0.96-2.76q0.16-0.4 0.52-0.52 0.4-0.12 0.84-0.04 0.32 0.04 0.64 0.28 0.36 0.24 0.32 0.64l-0.8 5.04q-0.12 0.56-0.4 0.72-0.24 0.12-0.76 0.12h-13.12q-1.2 0-2.36 0-1.12 0.04-2.44 0.12z"/>
		</g>
	</g>
</svg>
